/* XPM */
static char * close_pressed_xpm[] = {
"18 18 15 1",
" 	c None",
".	c #414141",
"+	c #2C2C2C",
"@	c #2A2A2A",
"#	c #292929",
"$	c #818181",
"%	c #272727",
"&	c #5B5B5B",
"*	c #252525",
"=	c #242424",
"-	c #222222",
";	c #202020",
">	c #1F1F1F",
",	c #1D1D1D",
"'	c #161616",
"..................",
"++++++++++++++++++",
"++++++++++++++++++",
"++++++++++++++++++",
"@@@@@@+++++++@@@@@",
"######@@$$$@@#####",
"%%%%%%##&&&##%%%%%",
"********&&&*******",
"========&&&=======",
"--------&&&-------",
";;;;;;;;&&&;;;;;;;",
">>>>>>>>&&&>>>>>>>",
",,,,,,,,''',,,,,,,",
",,,,,,,,''',,,,,,,",
",,,,,,,,''',,,,,,,",
",,,,,,,,,,,,,,,,,,",
",,,,,,,,,,,,,,,,,,",
">>>>>>>>>>>>>>>>>>"};
